<?xml version="1.0" encoding="UTF-8"?>
<svg width="201px" height="30px" viewBox="0 0 201 30" version="1.1" xmlns="http://www.w3.org/2000/svg" xmlns:xlink="http://www.w3.org/1999/xlink">
    <!-- Generator: Sketch 46.2 (44496) - http://www.bohemiancoding.com/sketch -->
    <title>fixing fashion logo red bg</title>
    <desc>Created with Sketch.</desc>
    <defs></defs>
    <g id="Page-1" stroke="none" stroke-width="1" fill="none" fill-rule="evenodd">
        <g id="fixing-fashion-logo-red-bg" transform="translate(0.000000, 1.000000)">
            <path d="M1.2719,22.6565 C1.0812,22.6565 0.9859,22.5612 0.9859,22.3705 L0.9859,6.1565 C0.9859,5.9658 1.0812,5.8705 1.2719,5.8705 L11.7439,5.8705 C11.9346,5.8705 12.0299,5.9658 12.0299,6.1565 L12.0299,7.9165 C12.0299,8.1072 11.9346,8.2025 11.7439,8.2025 L3.8679,8.2025 C3.6772,8.2025 3.5819,8.2978 3.5819,8.4885 L3.5819,12.8005 C3.5819,12.9912 3.6772,13.0865 3.8679,13.0865 L10.7979,13.0865 C10.9885,13.0865 11.0839,13.1818 11.0839,13.3725 L11.0839,15.1105 C11.0839,15.3012 10.9885,15.3965 10.7979,15.3965 L3.8679,15.3965 C3.6772,15.3965 3.5819,15.4918 3.5819,15.6825 L3.5819,22.3705 C3.5819,22.5612 3.4865,22.6565 3.2959,22.6565 L1.2719,22.6565 Z M14.5277,22.6565 C14.3371,22.6565 14.2417,22.5612 14.2417,22.3705 L14.2417,6.1565 C14.2417,5.9658 14.3371,5.8705 14.5277,5.8705 L16.5517,5.8705 C16.7424,5.8705 16.8377,5.9658 16.8377,6.1565 L16.8377,22.3705 C16.8377,22.5612 16.7424,22.6565 16.5517,22.6565 L14.5277,22.6565 Z M19.1835,22.6565 C19.0075,22.6565 18.9195,22.5978 18.9195,22.4805 C18.9195,22.4218 18.9415,22.3632 18.9855,22.3045 L24.3095,14.4505 C24.3535,14.3772 24.3755,14.3038 24.3755,14.2305 C24.3755,14.1572 24.3535,14.0912 24.3095,14.0325 L19.0295,6.2225 C18.9855,6.1492 18.9635,6.0905 18.9635,6.0465 C18.9635,5.9292 19.0515,5.8705 19.2275,5.8705 L21.6695,5.8705 C21.8308,5.8705 21.9482,5.9292 22.0215,6.0465 L26.0255,12.1405 C26.0842,12.2432 26.1502,12.2945 26.2235,12.2945 C26.3115,12.2945 26.3775,12.2432 26.4215,12.1405 L30.4255,6.0465 C30.4842,5.9292 30.5942,5.8705 30.7555,5.8705 L33.2195,5.8705 C33.3368,5.8705 33.4102,5.9072 33.4395,5.9805 C33.4835,6.0392 33.4762,6.1198 33.4175,6.2225 L28.1155,14.0325 C28.0862,14.1205 28.0715,14.1865 28.0715,14.2305 C28.0715,14.2892 28.0862,14.3625 28.1155,14.4505 L33.4615,22.3045 C33.4908,22.3925 33.5055,22.4438 33.5055,22.4585 C33.5055,22.5172 33.4835,22.5685 33.4395,22.6125 C33.3955,22.6418 33.3368,22.6565 33.2635,22.6565 L30.8435,22.6565 C30.6822,22.6565 30.5648,22.5978 30.4915,22.4805 L26.4215,16.4965 C26.3775,16.4085 26.3115,16.3645 26.2235,16.3645 C26.1648,16.3645 26.0988,16.4085 26.0255,16.4965 L21.9555,22.4805 C21.8822,22.5978 21.7648,22.6565 21.6035,22.6565 L19.1835,22.6565 Z M35.8617,22.6565 C35.6711,22.6565 35.5757,22.5612 35.5757,22.3705 L35.5757,6.1565 C35.5757,5.9658 35.6711,5.8705 35.8617,5.8705 L37.8857,5.8705 C38.0764,5.8705 38.1717,5.9658 38.1717,6.1565 L38.1717,22.3705 C38.1717,22.5612 38.0764,22.6565 37.8857,22.6565 L35.8617,22.6565 Z M41.7055,22.6565 C41.5148,22.6565 41.4195,22.5612 41.4195,22.3705 L41.4195,6.1565 C41.4195,5.9658 41.5148,5.8705 41.7055,5.8705 L44.4555,5.8705 C44.6315,5.8705 44.7488,5.9365 44.8075,6.0685 L51.5615,18.6525 C51.6201,18.7552 51.6861,18.8065 51.7595,18.8065 C51.8621,18.8065 51.9135,18.7258 51.9135,18.5645 L51.9135,6.1565 C51.9135,5.9658 52.0088,5.8705 52.1995,5.8705 L54.2015,5.8705 C54.3921,5.8705 54.4875,5.9658 54.4875,6.1565 L54.4875,22.3705 C54.4875,22.5612 54.3921,22.6565 54.2015,22.6565 L51.4515,22.6565 C51.2901,22.6565 51.1801,22.5905 51.1215,22.4585 L44.3675,9.8965 C44.2941,9.7792 44.2281,9.7205 44.1695,9.7205 C44.1255,9.7205 44.0888,9.7498 44.0595,9.8085 C44.0301,9.8525 44.0155,9.9112 44.0155,9.9845 L44.0155,22.3705 C44.0155,22.5612 43.9201,22.6565 43.7295,22.6565 L41.7055,22.6565 Z M65.1621,22.9205 C63.3728,22.9205 61.8695,22.5245 60.6521,21.7325 C59.4495,20.9405 58.5548,19.8918 57.9681,18.5865 C57.3815,17.2665 57.0881,15.8292 57.0881,14.2745 C57.0881,12.7052 57.3815,11.2678 57.9681,9.9625 C58.5548,8.6425 59.4495,7.5865 60.6521,6.7945 C61.8695,6.0025 63.3655,5.6065 65.1401,5.6065 C67.0321,5.6065 68.5941,6.0465 69.8261,6.9265 C71.073,7.7918 71.931,8.9798 72.4,10.4905 C72.415,10.5198 72.422,10.5565 72.422,10.6005 C72.422,10.7325 72.334,10.7985 72.158,10.7985 L69.8481,10.7985 C69.6868,10.7985 69.5841,10.7252 69.5401,10.5785 C69.1735,9.7425 68.6161,9.0972 67.8681,8.6425 C67.1201,8.1732 66.2035,7.9385 65.1181,7.9385 C63.9448,7.9385 62.9548,8.2245 62.1481,8.7965 C61.3415,9.3538 60.7401,10.1092 60.3441,11.0625 C59.9481,12.0012 59.7501,13.0572 59.7501,14.2305 C59.7501,15.4332 59.9555,16.5185 60.3661,17.4865 C60.7915,18.4398 61.4148,19.2025 62.2361,19.7745 C63.0721,20.3318 64.0841,20.6105 65.2721,20.6105 C66.7095,20.6105 67.8608,20.2292 68.7261,19.4665 C69.6061,18.6892 70.075,17.6038 70.134,16.2105 L70.134,16.1665 C70.134,16.0932 70.105,16.0345 70.046,15.9905 C69.9875,15.9318 69.9215,15.9025 69.8481,15.9025 L66.5701,15.9025 C66.3795,15.9025 66.2841,15.8072 66.2841,15.6165 L66.2841,13.9885 C66.2841,13.7978 66.3795,13.7025 66.5701,13.7025 L72.422,13.7025 C72.613,13.7025 72.708,13.7978 72.708,13.9885 L72.708,22.3705 C72.708,22.5612 72.613,22.6565 72.422,22.6565 L70.64,22.6565 C70.449,22.6565 70.354,22.5612 70.354,22.3705 L70.354,21.0505 C70.354,20.9038 70.31,20.8305 70.222,20.8305 C70.149,20.8305 70.068,20.8745 69.9801,20.9625 C69.4081,21.6225 68.6968,22.1138 67.8461,22.4365 C66.9955,22.7592 66.1008,22.9205 65.1621,22.9205 Z M106.094,22.6565 C105.903,22.6565 105.808,22.5612 105.808,22.3705 L105.808,6.1565 C105.808,5.9658 105.903,5.8705 106.094,5.8705 L116.566,5.8705 C116.757,5.8705 116.852,5.9658 116.852,6.1565 L116.852,7.9165 C116.852,8.1072 116.757,8.2025 116.566,8.2025 L108.69,8.2025 C108.499,8.2025 108.404,8.2978 108.404,8.4885 L108.404,12.8005 C108.404,12.9912 108.499,13.0865 108.69,13.0865 L115.62,13.0865 C115.811,13.0865 115.906,13.1818 115.906,13.3725 L115.906,15.1105 C115.906,15.3012 115.811,15.3965 115.62,15.3965 L108.69,15.3965 C108.499,15.3965 108.404,15.4918 108.404,15.6825 L108.404,22.3705 C108.404,22.5612 108.309,22.6565 108.118,22.6565 L106.094,22.6565 Z M116.376,22.6565 C116.273,22.6565 116.2,22.6272 116.156,22.5685 C116.112,22.5098 116.112,22.4292 116.156,22.3265 L122.008,6.0905 C122.052,5.9438 122.162,5.8705 122.338,5.8705 L124.714,5.8705 C124.89,5.8705 125,5.9438 125.044,6.0905 L130.896,22.3265 C130.91,22.3558 130.918,22.3998 130.918,22.4585 C130.918,22.5905 130.837,22.6565 130.676,22.6565 L128.586,22.6565 C128.41,22.6565 128.3,22.5758 128.256,22.4145 L127.112,19.1145 C127.053,18.9532 126.943,18.8725 126.782,18.8725 L120.27,18.8725 C120.094,18.8725 119.984,18.9532 119.94,19.1145 L118.796,22.4145 C118.752,22.5758 118.642,22.6565 118.466,22.6565 L116.376,22.6565 Z M125.902,16.5845 C126.004,16.5845 126.07,16.5552 126.1,16.4965 C126.144,16.4378 126.151,16.3572 126.122,16.2545 L123.724,9.1925 C123.68,9.0752 123.614,9.0165 123.526,9.0165 C123.438,9.0165 123.372,9.0752 123.328,9.1925 L120.908,16.2545 L120.886,16.3425 C120.886,16.5038 120.974,16.5845 121.15,16.5845 L125.902,16.5845 Z M139.151,22.9205 C137.362,22.9205 135.807,22.4952 134.487,21.6445 C133.167,20.7938 132.36,19.4812 132.067,17.7065 L132.067,17.6185 C132.067,17.4718 132.155,17.3985 132.331,17.3985 L134.421,17.3985 C134.582,17.3985 134.685,17.4792 134.729,17.6405 C135.008,18.7112 135.558,19.4885 136.379,19.9725 C137.2,20.4418 138.139,20.6765 139.195,20.6765 C140.266,20.6765 141.102,20.4565 141.703,20.0165 C142.319,19.5618 142.627,18.9018 142.627,18.0365 C142.627,17.3912 142.436,16.8778 142.055,16.4965 C141.674,16.1005 141.197,15.8145 140.625,15.6385 C140.053,15.4478 139.268,15.2425 138.271,15.0225 C137.054,14.7585 136.071,14.4945 135.323,14.2305 C134.575,13.9518 133.937,13.5118 133.409,12.9105 C132.881,12.2945 132.617,11.4512 132.617,10.3805 C132.617,9.3832 132.859,8.5252 133.343,7.8065 C133.827,7.0878 134.502,6.5452 135.367,6.1785 C136.232,5.7972 137.222,5.6065 138.337,5.6065 C139.921,5.6065 141.3,6.0098 142.473,6.8165 C143.646,7.6085 144.387,8.7892 144.695,10.3585 L144.717,10.4465 C144.717,10.5932 144.629,10.6665 144.453,10.6665 L142.429,10.6665 C142.253,10.6665 142.143,10.5858 142.099,10.4245 C141.85,9.5445 141.38,8.8992 140.691,8.4885 C140.016,8.0778 139.217,7.8725 138.293,7.8725 C137.325,7.8725 136.57,8.0778 136.027,8.4885 C135.484,8.8845 135.213,9.4418 135.213,10.1605 C135.213,10.7178 135.389,11.1652 135.741,11.5025 C136.108,11.8398 136.555,12.0965 137.083,12.2725 C137.611,12.4485 138.344,12.6392 139.283,12.8445 C140.559,13.1232 141.586,13.4092 142.363,13.7025 C143.155,13.9958 143.83,14.4798 144.387,15.1545 C144.944,15.8145 145.223,16.7238 145.223,17.8825 C145.223,19.4372 144.688,20.6692 143.617,21.5785 C142.561,22.4732 141.072,22.9205 139.151,22.9205 Z M148.118,22.6565 C147.927,22.6565 147.832,22.5612 147.832,22.3705 L147.832,6.1565 C147.832,5.9658 147.927,5.8705 148.118,5.8705 L150.142,5.8705 C150.332,5.8705 150.428,5.9658 150.428,6.1565 L150.428,12.7785 C150.428,12.9692 150.523,13.0645 150.714,13.0645 L157.952,13.0645 C158.142,13.0645 158.238,12.9692 158.238,12.7785 L158.238,6.1565 C158.238,5.9658 158.333,5.8705 158.524,5.8705 L160.548,5.8705 C160.738,5.8705 160.834,5.9658 160.834,6.1565 L160.834,22.3705 C160.834,22.5612 160.738,22.6565 160.548,22.6565 L158.524,22.6565 C158.333,22.6565 158.238,22.5612 158.238,22.3705 L158.238,15.6825 C158.238,15.4918 158.142,15.3965 157.952,15.3965 L150.714,15.3965 C150.523,15.3965 150.428,15.4918 150.428,15.6825 L150.428,22.3705 C150.428,22.5612 150.332,22.6565 150.142,22.6565 L148.118,22.6565 Z M164.381,22.6565 C164.191,22.6565 164.095,22.5612 164.095,22.3705 L164.095,6.1565 C164.095,5.9658 164.191,5.8705 164.381,5.8705 L166.405,5.8705 C166.596,5.8705 166.691,5.9658 166.691,6.1565 L166.691,22.3705 C166.691,22.5612 166.596,22.6565 166.405,22.6565 L164.381,22.6565 Z M177.287,22.9205 C175.542,22.9205 174.068,22.5318 172.865,21.7545 C171.677,20.9625 170.79,19.9138 170.203,18.6085 C169.616,17.2885 169.323,15.8365 169.323,14.2525 C169.323,12.6538 169.616,11.2018 170.203,9.8965 C170.79,8.5912 171.677,7.5498 172.865,6.7725 C174.068,5.9952 175.542,5.6065 177.287,5.6065 C179.032,5.6065 180.499,5.9952 181.687,6.7725 C182.89,7.5498 183.784,8.5912 184.371,9.8965 C184.972,11.2018 185.273,12.6538 185.273,14.2525 C185.273,15.8365 184.972,17.2885 184.371,18.6085 C183.784,19.9138 182.89,20.9625 181.687,21.7545 C180.499,22.5318 179.032,22.9205 177.287,22.9205 Z M177.287,20.5885 C178.402,20.5885 179.355,20.3245 180.147,19.7965 C180.954,19.2538 181.562,18.5058 181.973,17.5525 C182.398,16.5992 182.611,15.4992 182.611,14.2525 C182.611,13.0058 182.398,11.9132 181.973,10.9745 C181.562,10.0212 180.954,9.2805 180.147,8.7525 C179.355,8.2098 178.402,7.9385 177.287,7.9385 C176.172,7.9385 175.212,8.2098 174.405,8.7525 C173.613,9.2805 173.012,10.0212 172.601,10.9745 C172.19,11.9132 171.985,13.0058 171.985,14.2525 C171.985,15.4992 172.19,16.5992 172.601,17.5525 C173.012,18.5058 173.613,19.2538 174.405,19.7965 C175.212,20.3245 176.172,20.5885 177.287,20.5885 Z M188.164,22.6565 C187.974,22.6565 187.878,22.5612 187.878,22.3705 L187.878,6.1565 C187.878,5.9658 187.974,5.8705 188.164,5.8705 L190.914,5.8705 C191.09,5.8705 191.208,5.9365 191.266,6.0685 L198.02,18.6525 C198.079,18.7552 198.145,18.8065 198.218,18.8065 C198.321,18.8065 198.372,18.7258 198.372,18.5645 L198.372,6.1565 C198.372,5.9658 198.468,5.8705 198.658,5.8705 L200.66,5.8705 C200.851,5.8705 200.946,5.9658 200.946,6.1565 L200.946,22.3705 C200.946,22.5612 200.851,22.6565 200.66,22.6565 L197.91,22.6565 C197.749,22.6565 197.639,22.5905 197.58,22.4585 L190.826,9.8965 C190.753,9.7792 190.687,9.7205 190.628,9.7205 C190.584,9.7205 190.548,9.7498 190.518,9.8085 C190.489,9.8525 190.474,9.9112 190.474,9.9845 L190.474,22.3705 C190.474,22.5612 190.379,22.6565 190.188,22.6565 L188.164,22.6565 Z" id="Shape" fill="#FFFFFF" fill-rule="nonzero"></path>
            <path d="M75.627,11.6721 C79.069,9.5149 89.563,4.76 103.998,2.9976" id="Shape" stroke="#FFFFFF" stroke-width="2.78158" stroke-linecap="round" stroke-linejoin="round"></path>
            <path d="M89.131,0.6565 L93.103,24.7522" id="Shape" stroke="#FFFFFF" stroke-width="2.78158" stroke-linecap="round" stroke-linejoin="round"></path>
            <path d="M87.428,27.2318 C85.158,23.0093 80.188,12.857 78.463,6.0276" id="Shape" stroke="#FFFFFF" stroke-width="2.78158" stroke-linecap="round" stroke-linejoin="round"></path>
            <path d="M77.673,19.9299 C79.489,19.5627 84.232,18.3603 88.681,16.4877 C93.13,14.6151 97.419,13.7798 99.008,13.5962" id="Shape" stroke="#FFFFFF" stroke-width="2.78158" stroke-linecap="round" stroke-linejoin="round"></path>
        </g>
    </g>
</svg>