<?xml version="1.0" encoding="UTF-8"?>
<svg width="219px" height="704px" viewBox="0 0 219 704" version="1.1" xmlns="http://www.w3.org/2000/svg" xmlns:xlink="http://www.w3.org/1999/xlink">
    <!-- Generator: Sketch 46.2 (44496) - http://www.bohemiancoding.com/sketch -->
    <title>Group 3</title>
    <desc>Created with Sketch.</desc>
    <defs></defs>
    <g id="Page-1" stroke="none" stroke-width="1" fill="none" fill-rule="evenodd">
        <g id="Homepage---Desktop" transform="translate(-221.000000, -50.000000)">
            <g id="Group-3" transform="translate(228.000000, 50.000000)">
                <path d="M100,406.642 C100,407.155 99.872,407.582 99.616,407.923 C99.274,408.265 98.805,408.435 98.207,408.435 L4.0702,408.435 C3.4725,408.435 3.0456,408.265 2.7894,407.923 C2.4479,407.582 2.2771,407.155 2.2771,406.642 L2.2771,345.55 C2.2771,345.037 2.4479,344.61 2.7894,344.269 C3.0456,343.927 3.4725,343.756 4.0702,343.756 L15.0848,343.756 C15.6825,343.756 16.1522,343.927 16.4937,344.269 C16.7498,344.61 16.8779,345.037 16.8779,345.55 L16.8779,390.377 C16.8779,391.572 17.4756,392.17 18.671,392.17 L41.981,392.17 C43.1764,392.17 43.7741,391.572 43.7741,390.377 L43.7741,350.929 C43.7741,349.733 44.3718,349.136 45.5672,349.136 L56.4538,349.136 C57.6492,349.136 58.2468,349.733 58.2468,350.929 L58.2468,390.377 C58.2468,391.572 58.8445,392.17 60.0399,392.17 L98.207,392.17 C99.402,392.17 100,392.767 100,393.963 L100,406.642 Z M100,332.032 C100,332.545 99.872,332.972 99.616,333.313 C99.274,333.655 98.805,333.826 98.207,333.826 L4.0702,333.826 C3.4725,333.826 3.0456,333.655 2.7894,333.313 C2.4479,332.972 2.2771,332.545 2.2771,332.032 L2.2771,319.353 C2.2771,318.157 2.8748,317.56 4.0702,317.56 L98.207,317.56 C99.402,317.56 100,318.157 100,319.353 L100,332.032 Z M100,306.611 C100,307.294 99.787,307.764 99.36,308.02 C98.933,308.276 98.42,308.233 97.823,307.892 L52.3553,277.153 C51.9284,276.897 51.5014,276.769 51.0745,276.769 C50.5622,276.769 50.1353,276.897 49.7937,277.153 L4.4544,307.636 C4.0275,307.892 3.686,308.02 3.4298,308.02 C2.6614,308.02 2.2771,307.508 2.2771,306.483 L2.2771,291.114 C2.2771,290.089 2.6614,289.363 3.4298,288.936 L38.0107,266.523 C38.6083,266.181 38.9072,265.755 38.9072,265.242 C38.9072,264.73 38.6083,264.303 38.0106,263.961 L3.4298,241.548 C2.6614,241.121 2.2771,240.395 2.2771,239.371 L2.2771,224.001 C2.2771,222.977 2.6614,222.464 3.4298,222.464 C3.686,222.464 4.0275,222.593 4.4544,222.849 L49.7937,253.331 C50.1353,253.587 50.5622,253.715 51.0745,253.715 C51.5014,253.715 51.9284,253.587 52.3553,253.331 L97.823,222.593 C98.164,222.336 98.463,222.208 98.719,222.208 C99.573,222.208 100,222.763 100,223.873 L100,238.986 C100,240.011 99.616,240.737 98.847,241.164 L65.163,263.961 C64.6507,264.303 64.3945,264.73 64.3945,265.242 C64.3945,265.669 64.6507,266.096 65.163,266.523 L98.847,289.321 C99.616,289.748 100,290.473 100,291.498 L100,306.611 Z M100,211.455 C100,211.967 99.872,212.394 99.616,212.736 C99.274,213.077 98.805,213.248 98.207,213.248 L4.0702,213.248 C3.4725,213.248 3.0456,213.077 2.7894,212.736 C2.4479,212.394 2.2771,211.967 2.2771,211.455 L2.2771,198.775 C2.2771,197.58 2.8748,196.982 4.0702,196.982 L98.207,196.982 C99.402,196.982 100,197.58 100,198.775 L100,211.455 Z M100,179.245 C100,179.758 99.872,180.185 99.616,180.526 C99.274,180.868 98.805,181.038 98.207,181.038 L4.0702,181.038 C3.4725,181.038 3.0456,180.868 2.7894,180.526 C2.4479,180.185 2.2771,179.758 2.2771,179.245 L2.2771,162.852 C2.2771,161.742 2.6614,161.016 3.4298,160.674 L73.8722,122.123 C74.4699,121.781 74.7688,121.397 74.7688,120.97 C74.7688,120.714 74.6407,120.501 74.3846,120.33 C74.1284,120.074 73.7442,119.946 73.2319,119.946 L4.0702,119.946 C2.8748,119.946 2.2771,119.348 2.2771,118.153 L2.2771,105.601 C2.2771,104.406 2.8748,103.808 4.0702,103.808 L98.207,103.808 C99.402,103.808 100,104.406 100,105.601 L100,121.995 C100,123.02 99.616,123.745 98.847,124.172 L28.5329,162.595 C27.8499,162.937 27.5083,163.321 27.5083,163.748 C27.5083,164.004 27.6791,164.26 28.0206,164.517 C28.2768,164.687 28.6183,164.773 29.0452,164.773 L98.207,164.773 C99.402,164.773 100,165.37 100,166.566 L100,179.245 Z M101.665,44.4962 C101.665,54.9132 99.36,63.6651 94.749,70.7521 C90.138,77.839 84.033,83.1328 76.4338,86.634 C68.7492,90.049 60.3388,91.757 51.2026,91.757 C42.0664,91.757 33.6987,90.049 26.0995,86.634 C18.4148,83.1329 12.2671,77.839 7.6564,70.7521 C3.0456,63.6651 0.7402,54.9559 0.7402,44.6243 C0.7402,33.2681 3.3444,23.9612 8.5529,16.7035 C13.676,9.3604 20.7202,4.3654 29.6856,1.7185 C29.8564,1.6331 30.0699,1.5904 30.326,1.5904 C31.1799,1.5904 31.6068,2.1454 31.6068,3.2554 L31.6068,17.7281 C31.6068,18.7527 31.1372,19.3931 30.1979,19.6493 C25.4164,21.6985 21.7448,24.8577 19.1833,29.127 C16.5364,33.3108 15.2129,38.5193 15.2129,44.7524 C15.2129,51.327 16.7925,56.877 19.9518,61.4024 C23.111,65.9278 27.4229,69.3432 32.8876,71.6486 C38.2668,73.8686 44.2864,74.9786 50.9464,74.9786 C57.8626,74.9786 64.053,73.7832 69.5176,71.3924 C74.9822,69.0017 79.2942,65.4582 82.4534,60.762 C85.6127,56.0659 87.1923,50.3451 87.1923,43.5997 C87.1923,35.4881 85.1003,29.0416 80.9165,24.2601 C76.6472,19.3931 70.6703,16.7462 62.9857,16.3193 L62.7295,16.3193 C62.3026,16.3193 61.9611,16.49 61.7049,16.8316 C61.3634,17.1731 61.1926,17.5573 61.1926,17.9843 L61.1926,36.5555 C61.1926,37.7508 60.5949,38.3485 59.3995,38.3485 L49.2814,38.3485 C48.086,38.3485 47.4883,37.7508 47.4883,36.5555 L47.4883,1.8466 C47.4883,1.3342 47.6591,0.9073 48.0007,0.5658 C48.2568,0.2242 48.6837,0.0535 49.2814,0.0535 L98.207,0.0535 C98.805,0.0535 99.274,0.2242 99.616,0.5658 C99.872,0.9073 100,1.3342 100,1.8466 L100,13.1173 C100,14.3127 99.402,14.9104 98.207,14.9104 L91.291,14.9104 C90.437,14.9104 90.01,15.2093 90.01,15.807 C90.01,16.2339 90.266,16.7035 90.778,17.2158 C94.45,20.4604 97.182,24.5162 98.975,29.3831 C100.768,34.1647 101.665,39.2024 101.665,44.4962 Z" id="Shape" fill="#F82F03" fill-rule="nonzero"></path>
                <path d="M209.875,542.414 C209.875,542.926 209.747,543.353 209.491,543.695 C209.149,544.036 208.68,544.207 208.082,544.207 L113.945,544.207 C113.348,544.207 112.921,544.036 112.664,543.695 C112.323,543.353 112.152,542.926 112.152,542.414 L112.152,481.321 C112.152,480.809 112.323,480.382 112.664,480.04 C112.921,479.699 113.348,479.528 113.945,479.528 L124.96,479.528 C125.558,479.528 126.027,479.699 126.369,480.04 C126.625,480.382 126.753,480.809 126.753,481.321 L126.753,526.148 C126.753,527.344 127.351,527.941 128.546,527.941 L151.856,527.941 C153.051,527.941 153.649,527.344 153.649,526.148 L153.649,486.7 C153.649,485.505 154.247,484.907 155.442,484.907 L166.329,484.907 C167.524,484.907 168.122,485.505 168.122,486.7 L168.122,526.148 C168.122,527.344 168.72,527.941 169.915,527.941 L208.082,527.941 C209.277,527.941 209.875,528.539 209.875,529.734 L209.875,542.414 Z M209.875,484.741 C209.875,485.424 209.704,485.894 209.363,486.15 C208.936,486.406 208.423,486.406 207.826,486.15 L113.561,452.466 C112.622,452.124 112.152,451.441 112.152,450.417 L112.152,435.56 C112.152,434.45 112.622,433.767 113.561,433.51 L207.826,399.698 C207.997,399.613 208.21,399.57 208.466,399.57 C208.893,399.57 209.235,399.741 209.491,400.082 C209.747,400.338 209.875,400.723 209.875,401.235 L209.875,414.299 C209.875,415.409 209.363,416.092 208.338,416.348 L190.023,422.624 C188.998,423.051 188.486,423.734 188.486,424.673 L188.486,461.175 C188.486,462.285 188.998,462.968 190.023,463.224 L208.338,469.5 C209.363,469.842 209.875,470.525 209.875,471.549 L209.875,484.741 Z M174.27,430.052 C174.27,429.455 174.099,429.028 173.757,428.772 C173.33,428.515 172.818,428.473 172.22,428.643 L133.157,441.707 C132.388,441.963 132.004,442.348 132.004,442.86 C132.004,443.458 132.388,443.885 133.157,444.141 L172.22,457.333 C172.391,457.418 172.605,457.461 172.861,457.461 C173.288,457.461 173.629,457.333 173.885,457.077 C174.141,456.735 174.27,456.351 174.27,455.924 L174.27,430.052 Z M211.54,354.206 C211.54,360.78 210.515,367.013 208.466,372.905 C206.332,378.711 203.002,383.706 198.476,387.89 C193.865,392.074 187.974,394.721 180.801,395.831 L180.289,395.831 C179.35,395.831 178.88,395.276 178.88,394.166 L178.88,381.102 C178.88,380.077 179.393,379.394 180.417,379.053 C186.48,377.43 190.877,374.314 193.609,369.703 C196.256,365.092 197.58,359.841 197.58,353.949 C197.58,348.058 196.342,343.362 193.865,339.861 C191.389,336.36 187.718,334.61 182.851,334.61 C179.265,334.61 176.404,335.72 174.27,337.94 C172.135,340.074 170.555,342.764 169.531,346.009 C168.421,349.253 167.225,353.736 165.945,359.457 C164.408,366.544 162.828,372.307 161.206,376.747 C159.583,381.187 156.979,384.987 153.393,388.146 C149.807,391.22 144.897,392.757 138.664,392.757 C132.773,392.757 127.735,391.305 123.551,388.402 C119.282,385.499 116.08,381.529 113.945,376.491 C111.725,371.368 110.615,365.562 110.615,359.073 C110.615,349.68 112.963,341.526 117.659,334.61 C122.356,327.608 129.314,323.211 138.536,321.418 L139.048,321.418 C139.988,321.418 140.457,321.93 140.457,322.955 L140.457,335.763 C140.457,336.787 139.945,337.47 138.92,337.812 C134.053,339.178 130.467,341.782 128.162,345.624 C125.771,349.467 124.576,354.035 124.576,359.329 C124.576,364.623 125.686,368.806 127.906,371.88 C130.126,374.954 133.242,376.491 137.255,376.491 C140.414,376.491 142.933,375.509 144.812,373.545 C146.69,371.496 148.142,368.934 149.166,365.861 C150.106,362.787 151.173,358.603 152.368,353.309 C153.991,345.795 155.698,339.733 157.491,335.122 C159.199,330.511 162.017,326.584 165.945,323.339 C169.787,320.009 175.081,318.344 181.826,318.344 C190.962,318.344 198.22,321.503 203.599,327.822 C208.893,334.055 211.54,342.849 211.54,354.206 Z M209.875,304.326 C209.875,304.838 209.747,305.265 209.491,305.606 C209.149,305.948 208.68,306.119 208.082,306.119 L113.945,306.119 C113.348,306.119 112.921,305.948 112.664,305.606 C112.323,305.265 112.152,304.838 112.152,304.326 L112.152,291.646 C112.152,290.451 112.75,289.853 113.945,289.853 L151.856,289.853 C152.368,289.853 152.795,289.725 153.137,289.469 C153.478,289.127 153.649,288.657 153.649,288.06 L153.649,247.459 C153.649,246.862 153.478,246.435 153.137,246.179 C152.795,245.837 152.368,245.666 151.856,245.666 L113.945,245.666 C113.348,245.666 112.921,245.495 112.664,245.154 C112.323,244.812 112.152,244.385 112.152,243.873 L112.152,231.194 C112.152,229.998 112.75,229.4 113.945,229.4 L208.082,229.4 C209.277,229.4 209.875,229.998 209.875,231.194 L209.875,243.873 C209.875,244.385 209.747,244.812 209.491,245.154 C209.149,245.495 208.68,245.666 208.082,245.666 L169.915,245.666 C168.72,245.666 168.122,246.264 168.122,247.459 L168.122,288.06 C168.122,289.255 168.72,289.853 169.915,289.853 L208.082,289.853 C209.277,289.853 209.875,290.451 209.875,291.646 L209.875,304.326 Z M209.875,211.705 C209.875,212.217 209.747,212.644 209.491,212.986 C209.149,213.327 208.68,213.498 208.082,213.498 L113.945,213.498 C113.348,213.498 112.921,213.327 112.664,212.986 C112.323,212.644 112.152,212.217 112.152,211.705 L112.152,199.025 C112.152,197.83 112.75,197.232 113.945,197.232 L208.082,197.232 C209.277,197.232 209.875,197.83 209.875,199.025 L209.875,211.705 Z M211.54,138.126 C211.54,148.373 209.277,156.996 204.752,163.998 C200.141,171 194.036,176.251 186.437,179.752 C178.752,183.167 170.256,184.875 160.95,184.875 C151.643,184.875 143.189,183.167 135.59,179.752 C127.991,176.251 121.929,171 117.403,163.998 C112.878,156.996 110.615,148.373 110.615,138.126 C110.615,127.966 112.878,119.384 117.403,112.383 C121.929,105.296 128.034,100.045 135.718,96.629 C143.318,93.129 151.728,91.378 160.95,91.378 C170.256,91.378 178.752,93.129 186.437,96.629 C194.036,100.045 200.141,105.296 204.752,112.383 C209.277,119.384 211.54,127.966 211.54,138.126 Z M196.939,138.126 C196.939,128.649 193.652,121.306 187.077,116.097 C180.503,110.803 171.793,108.156 160.95,108.156 C150.191,108.156 141.524,110.803 134.95,116.097 C128.375,121.306 125.088,128.649 125.088,138.126 C125.088,144.36 126.625,149.739 129.699,154.264 C132.687,158.79 136.914,162.248 142.378,164.638 C147.758,166.944 153.948,168.096 160.95,168.096 C168.036,168.096 174.312,166.944 179.777,164.638 C185.156,162.248 189.383,158.79 192.456,154.264 C195.445,149.739 196.939,144.36 196.939,138.126 Z M209.875,77.3689 C209.875,77.8812 209.747,78.3081 209.491,78.6496 C209.149,78.9912 208.68,79.1619 208.082,79.1619 L113.945,79.162 C113.347,79.162 112.921,78.9912 112.664,78.6496 C112.323,78.3081 112.152,77.8812 112.152,77.3689 L112.152,60.975 C112.152,59.865 112.536,59.1392 113.305,58.7977 L183.747,20.2465 C184.345,19.9049 184.644,19.5207 184.644,19.0938 C184.644,18.8376 184.516,18.6241 184.26,18.4534 C184.003,18.1972 183.619,18.0691 183.107,18.0691 L113.945,18.0691 C112.75,18.0691 112.152,17.4715 112.152,16.2761 L112.152,3.7245 C112.152,2.5291 112.75,1.9314 113.945,1.9314 L208.082,1.9314 C209.277,1.9314 209.875,2.5291 209.875,3.7245 L209.875,20.1184 C209.875,21.143 209.491,21.8688 208.722,22.2957 L138.408,60.7188 C137.725,61.0604 137.383,61.4446 137.383,61.8715 C137.383,62.1277 137.554,62.3838 137.896,62.64 C138.152,62.8108 138.493,62.8962 138.92,62.8962 L208.082,62.8962 C209.277,62.8962 209.875,63.4938 209.875,64.6892 L209.875,77.3689 Z" id="Shape" fill="#F82F03" fill-rule="nonzero"></path>
                <g id="Group-2" transform="translate(0.000000, 562.000000)" stroke="#F82F03" stroke-width="14.1197" stroke-linecap="round" stroke-linejoin="round">
                    <path d="M0.9844,55.991 C18.4583,45.041 71.7249,20.904 145,11.958" id="Shape"></path>
                    <path d="M69.5356,0.074 L89.698,122.387" id="Shape"></path>
                    <path d="M60.8966,134.975 C49.3754,113.541 24.1438,62.006 15.3877,27.339" id="Shape"></path>
                    <path d="M11.3711,97.908 C20.5881,96.044 44.6675,89.94 67.2491,80.435 C89.831,70.93 111.606,66.689 119.671,65.757" id="Shape"></path>
                </g>
            </g>
        </g>
    </g>
</svg>